<svg xmlns="http://www.w3.org/2000/svg" fill="none" viewBox="0 0 183 183"><path fill="#78a7ff" d="M145.818 119.578c-9.692 16.921-27.875 28.314-48.707 28.314-31.012 0-56.152-25.247-56.152-56.392 0-31.145 25.14-56.392 56.152-56.392 20.51 0 38.452 11.043 48.252 27.532l30.255-17.603C159.766 18.08 130.541 0 97.111 0 46.791 0 6 40.966 6 91.5S46.792 183 97.111 183c33.701 0 63.127-18.375 78.889-45.693l-30.182-17.729Z M145.71 119.768c4.803-8.311 7.553-17.967 7.553-28.268 0-10.59-2.906-20.498-7.962-28.964l-49.72 28.086 50.129 29.146Z"></path></svg>
