<svg width="170" height="183" viewBox="0 0 170 183" fill="none" xmlns="http://www.w3.org/2000/svg">
<path d="M139.818 119.578C130.126 136.499 111.943 147.892 91.111 147.892C60.099 147.892 34.959 122.645 34.959 91.5C34.959 60.355 60.099 35.108 91.111 35.108C111.621 35.108 129.563 46.151 139.363 62.64L169.618 45.037C153.766 18.08 124.541 0 91.111 0C40.791 0 0 40.966 0 91.5C0 142.034 40.792 183 91.111 183C124.812 183 154.238 164.625 170 137.307L139.818 119.578ZM139.71 119.768C144.513 111.457 147.263 101.801 147.263 91.5C147.263 80.91 144.357 71.002 139.301 62.536L89.581 90.622L139.71 119.768Z" fill="#78A7FF"/>
</svg>
